<?xml version="1.0" encoding="UTF-8"?>
<svg xmlns="http://www.w3.org/2000/svg" version="1.1" viewBox="0 0 24 24">
  <defs>
    <style>
      .cls-1 {
        fill: #888;
      }
    </style>
  </defs>
  <!-- Generator: Adobe Illustrator 28.6.0, SVG Export Plug-In . SVG Version: 1.2.0 Build 709)  -->
  <g>
    <g id="Ebene_1">
      <g id="Ebene_1-2" data-name="Ebene_1">
        <path class="cls-1" d="M19.1,17.3c3.1-3.1,3.1-8.2,0-11.4-2.5-2.6-6.5-3.1-9.6-1.3-3.9,2.2-5.2,7.1-3.1,10.9l-3.3,3.3c-.8.8-.8,2.2,0,3.1s2.2.8,3.1,0l3.3-3.3c1.2.7,2.6,1,3.9,1,2.1,0,4.2-.8,5.7-2.4h0ZM19.5,11.6c0,1.6-.6,3.1-1.8,4.3-2.4,2.4-6.2,2.4-8.5,0-2.4-2.4-2.4-6.2,0-8.5,2.4-2.4,6.2-2.4,8.5,0,1.1,1.1,1.8,2.7,1.8,4.3h0Z"/>
      </g>
    </g>
  </g>
</svg>