<?xml version="1.0" encoding="UTF-8"?>
<svg xmlns="http://www.w3.org/2000/svg" version="1.1" viewBox="0 0 24 24">
  <defs>
    <style>
      .cls-1, .cls-2 {
        isolation: isolate;
      }

      .cls-2 {
        font-family: Arrows1-Regular, Arrows1;
        font-size: 14.3px;
      }
    </style>
  </defs>
  <!-- Generator: Adobe Illustrator 28.6.0, SVG Export Plug-In . SVG Version: 1.2.0 Build 709)  -->
  <g>
    <g id="Ebene_1">
      <g id="Ebene_1-2" data-name="Ebene_1">
        <g id="Ebene_1-2">
          <path d="M10.1,20.1c1.3,0,2.6-.6,3.5-1.5,1.9-1.9,1.9-5.1,0-7.1-1.5-1.6-4-1.9-5.9-.8-2.4,1.4-3.2,4.5-1.9,6.9l-2.1,2.1c-.5.5-.5,1.4,0,1.9s1.4.5,1.9,0l2.1-2.1c.7.5,1.5.7,2.4.7h0ZM13.8,15.1c0,1-.4,2-1.1,2.7-1.5,1.5-3.8,1.5-5.3,0s-1.5-3.9,0-5.4,3.8-1.5,5.3,0,1.1,1.7,1.1,2.7Z"/>
          <g class="cls-1">
            <g class="cls-1">
              <text class="cls-2" transform="translate(16 17.2) scale(1.2 1)"><tspan x="0" y="0">!</tspan></text>
            </g>
          </g>
        </g>
      </g>
    </g>
  </g>
</svg>