<?xml version="1.0" encoding="UTF-8"?>
<svg xmlns="http://www.w3.org/2000/svg" version="1.1" viewBox="0 0 24 24">
  <defs>
    <style>
      .cls-1 {
        font-family: Arrows1-Regular, Arrows1;
        font-size: 14.3px;
      }
    </style>
  </defs>
  <!-- Generator: Adobe Illustrator 28.6.0, SVG Export Plug-In . SVG Version: 1.2.0 Build 709)  -->
  <g>
    <g id="Ebene_1">
      <path d="M14.2,19.2c.9,0,1.7-.2,2.4-.7l2.1,2.1c.5.5,1.4.5,1.9,0s.5-1.4,0-1.9l-2.1-2.1c1.3-2.4.5-5.5-1.9-6.9-1.9-1.1-4.4-.8-5.9.8-1.9,2-1.9,5.2,0,7.1.9.9,2.2,1.5,3.5,1.5ZM11.6,11.4c1.5-1.5,3.8-1.5,5.3,0,1.5,1.5,1.5,3.9,0,5.4-1.5,1.5-3.8,1.5-5.3,0-.7-.7-1.1-1.7-1.1-2.7,0-1,.4-2,1.1-2.7Z"/>
      <text class="cls-1" transform="translate(2 16.2) scale(1.2 1)"><tspan x="0" y="0">!</tspan></text>
    </g>
  </g>
</svg>